<svg id="Layer_1" data-name="Layer 1" xmlns="http://www.w3.org/2000/svg" viewBox="0 0 216 229">
<path class="cls-1" d="M110.25,164h0a47.29,47.29,0,1,1,47.29-47.28A47.28,47.28,0,0,1,110.25,164Z"/>
<path class="cls-2" d="M104,131.68a8,8,0,0,0,3.32-1.47,8.1,8.1,0,0,0,2.08-2.31,8.59,8.59,0,0,0,1.3-4.68,7.77,7.77,0,0,0-1.14-4.3,6.51,6.51,0,0,0-3.39-2.59,7.1,7.1,0,0,0,2.24-1.67,6.53,6.53,0,0,0,1.36-4.33,7.46,7.46,0,0,0-1.35-4.48q-2.23-3-7.61-3.12H86.61v29.35H99.84a20,20,0,0,0,4.15-.4M92.47,107.82h6.39a11.25,11.25,0,0,1,3.47.46A2.63,2.63,0,0,1,103.9,111a2.78,2.78,0,0,1-1.19,2.58,5.84,5.84,0,0,1-3.11.73H92.47Zm0,19.16v-7.82h7.22a7.55,7.55,0,0,1,2.94.49,3.17,3.17,0,0,1,1.87,3.15,3.7,3.7,0,0,1-1.93,3.67,7,7,0,0,1-3,.51Z"/>
<path class="cls-2" d="M115.67,130.15a11.8,11.8,0,0,0,7.64,2.67c3.5,0,6.23-1,8.17-3.17a7.14,7.14,0,0,0,2.11-3.92h-5.8a4.43,4.43,0,0,1-4.32,2.49,5.73,5.73,0,0,1-3.13-.82c-1.43-.87-2.18-2.4-2.27-4.58h15.81a26.63,26.63,0,0,0-.19-4.31A10.63,10.63,0,0,0,132,114a8.78,8.78,0,0,0-3.75-3.21,12.45,12.45,0,0,0-5.1-1,10.48,10.48,0,0,0-7.77,3q-3,3-3,8.65,0,6,3.32,8.69m4-14.43a4.49,4.49,0,0,1,3.39-1.24,5,5,0,0,1,3.37,1.17,4.77,4.77,0,0,1,1.51,3.43h-9.78a5.89,5.89,0,0,1,1.51-3.36"/>
<rect class="cls-2" x="116.36" y="104.41" width="12.76" height="2.96"/>
</svg>