<svg xmlns="http://www.w3.org/2000/svg" viewBox="0 0 264.94 515.11"><defs><style>.cls-1{fill:none;stroke:#1a9ca1;stroke-miterlimit:10;stroke-width:2px;}</style></defs><g id="Layer_2" data-name="Layer 2"><g id="Layer_1-2" data-name="Layer 1"><rect class="cls-1" x="120.99" y="73.57" width="24.29" height="8.57"/><rect class="cls-1" x="123.35" y="505.54" width="19.57" height="8.57"/><rect class="cls-1" x="124.13" y="83.57" width="18" height="163.29"/><polygon class="cls-1" points="139.42 377.71 126.85 377.71 126.56 246.86 139.71 246.86 139.42 377.71"/><polygon class="cls-1" points="137.78 505.43 128.49 505.43 128.06 377.71 138.21 377.71 137.78 505.43"/><rect class="cls-1" x="1.86" y="488.15" width="19.57" height="8.57" transform="translate(101.91 8.2) rotate(11.91)"/><rect class="cls-1" x="72.01" y="83.1" width="18" height="161.13" transform="translate(35.53 -13.2) rotate(11.91)"/><polygon class="cls-1" points="44.37 367.77 32.07 365.18 57.73 242.16 70.59 244.87 44.37 367.77"/><polygon class="cls-1" points="17.09 489.1 8.01 487.18 33.05 366.41 42.98 368.51 17.09 489.1"/><rect class="cls-1" x="243.51" y="488.15" width="19.57" height="8.57" transform="translate(602.78 921.98) rotate(168.09)"/><rect class="cls-1" x="174.93" y="83.1" width="18" height="161.13" transform="translate(397.68 285.84) rotate(168.09)"/><polygon class="cls-1" points="220.57 367.77 232.87 365.18 207.2 242.16 194.34 244.87 220.57 367.77"/><polygon class="cls-1" points="247.84 489.1 256.93 487.18 231.89 366.41 221.96 368.51 247.84 489.1"/><polyline class="cls-1" points="96.99 60.84 96.99 54.14 120.99 54.14 145.28 54.14 168.99 54.14 168.99 61.23"/><polyline class="cls-1" points="152.73 73.57 145.28 73.57 120.99 73.57 112.09 73.57"/><circle class="cls-1" cx="100.13" cy="72.43" r="12"/><circle class="cls-1" cx="164.68" cy="72.43" r="12"/><polygon class="cls-1" points="105.85 9.29 152.68 3.86 152.68 39.31 105.85 35.6 105.85 9.29"/><polygon class="cls-1" points="145.28 39.31 120.99 36.8 120.99 54.14 145.28 54.14 145.28 39.31"/><rect class="cls-1" x="161.85" y="1" width="14.83" height="40.57" rx="3"/><rect class="cls-1" x="152.68" y="15.86" width="9.17" height="10.86"/></g></g></svg>