<svg xmlns="http://www.w3.org/2000/svg" viewBox="0 0 457.14 365.14"><defs><style>.cls-1,.cls-2{fill:none;stroke:#1a9ca1;stroke-width:2px;}.cls-1{stroke-miterlimit:10;}.cls-2{stroke-linecap:round;stroke-linejoin:round;}</style></defs><g id="Layer_2" data-name="Layer 2"><g id="Layer_1-2" data-name="Layer 1"><rect class="cls-1" x="17.29" y="17.29" width="396.86" height="197.14" rx="8"/><path class="cls-2" d="M179.71,293.29l-11.35,32a5.9,5.9,0,0,0,5.56,7.87h84.69a5.9,5.9,0,0,0,5.62-7.71l-10.37-32.14H408.14A22.29,22.29,0,0,0,430.43,271V23.29A22.29,22.29,0,0,0,408.14,1H23.29A22.29,22.29,0,0,0,1,23.29V271a22.29,22.29,0,0,0,22.29,22.29H179.71Z"/><path class="cls-1" d="M186.89,300.4l-5.81,16.38a4.33,4.33,0,0,0,4.08,5.79h62.22a4.34,4.34,0,0,0,4.12-5.67l-5.23-16.2a10.68,10.68,0,0,0-10.17-7.41H197A10.69,10.69,0,0,0,186.89,300.4Z"/><circle class="cls-1" cx="216.27" cy="259.43" r="11.72"/><rect class="cls-1" x="36.14" y="341.29" width="334.86" height="22.86" rx="11.43"/><path class="cls-1" d="M409.86,330.43h18.29a28,28,0,0,1,28,28v0a5.71,5.71,0,0,1-5.71,5.71H387.57a5.71,5.71,0,0,1-5.71-5.71v0a28,28,0,0,1,28-28Z"/></g></g></svg>