<svg id="Layer_1" data-name="Layer 1" xmlns="http://www.w3.org/2000/svg" viewBox="0 0 216 229">
<path class="cls-1" d="M108,159.66h0a49.33,49.33,0,1,1,49.33-49.33A49.34,49.34,0,0,1,108,159.66Z"/>
<path class="cls-2" d="M108,90.67c6.4,0,7.16,0,9.69.14a13,13,0,0,1,4.45.82,8,8,0,0,1,4.56,4.55,13.7,13.7,0,0,1,.82,4.46c.12,2.53.14,3.28.14,9.69s0,7.16-.14,9.69a13.56,13.56,0,0,1-.82,4.45,7.51,7.51,0,0,1-1.8,2.76,7.36,7.36,0,0,1-2.76,1.79,13.22,13.22,0,0,1-4.45.83c-2.53.11-3.29.14-9.69.14s-7.16,0-9.69-.14a13.22,13.22,0,0,1-4.45-.83,7.36,7.36,0,0,1-2.76-1.79,7.51,7.51,0,0,1-1.8-2.76,13.56,13.56,0,0,1-.82-4.45c-.12-2.53-.14-3.29-.14-9.69s0-7.16.14-9.69a13.7,13.7,0,0,1,.82-4.46,8,8,0,0,1,4.56-4.55,13,13,0,0,1,4.45-.82c2.53-.12,3.29-.14,9.69-.14m0-4.33c-6.51,0-7.33,0-9.89.15a17.81,17.81,0,0,0-5.82,1.11A12,12,0,0,0,88,90.37a11.78,11.78,0,0,0-2.76,4.25,17.47,17.47,0,0,0-1.12,5.82c-.11,2.56-.14,3.37-.14,9.89s0,7.33.14,9.88A17.54,17.54,0,0,0,85.28,126a12.26,12.26,0,0,0,7,7,17.78,17.78,0,0,0,5.82,1.12c2.56.11,3.38.14,9.89.14s7.33,0,9.89-.14a17.78,17.78,0,0,0,5.82-1.12,12.26,12.26,0,0,0,7-7,17.54,17.54,0,0,0,1.12-5.83c.11-2.55.14-3.37.14-9.88s0-7.33-.14-9.89a17.47,17.47,0,0,0-1.12-5.82A11.78,11.78,0,0,0,128,90.37a12,12,0,0,0-4.25-2.77,17.81,17.81,0,0,0-5.82-1.11c-2.56-.12-3.38-.15-9.89-.15"/>
<path class="cls-2" d="M108,98a12.32,12.32,0,1,0,12.32,12.32A12.33,12.33,0,0,0,108,98m0,20.31a8,8,0,1,1,8-8,8,8,0,0,1-8,8"/>
<path class="cls-2" d="M123.68,97.53a2.88,2.88,0,1,1-2.88-2.88,2.87,2.87,0,0,1,2.88,2.88"/>
</svg>