<svg xmlns="http://www.w3.org/2000/svg" viewBox="0 0 233.16 123.62"><defs><style>.cls-1{fill:#fff;}</style></defs><g id="Layer_2" data-name="Layer 2"><g id="Layer_1-2" data-name="Layer 1"><path class="cls-1" d="M124.59,0c7.2,2,13.87,4.76,16.73,12.55a14.42,14.42,0,0,1,.57,1.91,5.33,5.33,0,0,1-.08,1.28l-16.46,1.91a7.68,7.68,0,0,0-1.22-1.94c-1.88-1.62-3.88-4.37-5.79-4.35-2.3,0-5.64,2-6.62,4-1.88,3.87-2.4,8.4-3,12.94,6-4.52,12.27-6.6,19.42-4.79,10.51,2.66,16.36,11.55,15.6,23.56A21,21,0,0,1,124.09,66.9a60.05,60.05,0,0,1-12.91-.51c-9-1.17-14.92-6.57-17.81-14.85a52.9,52.9,0,0,1,.23-36.19c3.35-9.27,11-13.22,20-15.35ZM127,45.4c0-4.56-.82-9.18-5.62-10.63-2.58-.78-6.84-.25-8.55,1.48-2.12,2.14-3.13,6.09-3.31,9.32-.33,6.18,3.76,10.52,8.87,10.54S126.93,51.91,127,45.4Z"/><path class="cls-1" d="M180.59,0c13.75,3.14,19.2,13,19.74,25.87a116.16,116.16,0,0,1-1.58,24.28c-1.49,8.78-7.18,14.15-16.21,16.19-19.43,4.39-32.46-4.59-33.91-24.39a109.52,109.52,0,0,1,.76-22.38C150.78,9,157,2.49,167.81.78A7.53,7.53,0,0,0,169.59,0ZM165.25,33.31c.55,4.82.84,9.65,1.72,14.37.7,3.74,2.58,7,7.05,7.24,4.7.2,6.89-2.92,7.77-7a68,68,0,0,0-.27-29.68c-.84-3.7-3.2-6.3-7.33-6.26-4.44,0-6.59,3-7.25,6.91C166.14,23.66,165.8,28.48,165.25,33.31Z"/><path class="cls-1" d="M63.59,0c2.09.51,4.19,1,6.26,1.55C76.16,3.21,80.41,7,81.94,13.48s-1.37,11.26-6.23,15.18c-.49.4-1,.76-1.17.88,3.08,2.66,7,4.74,8.83,8A19.53,19.53,0,0,1,85.31,49c-1.24,9.81-8,16.17-18.87,17.67a61.12,61.12,0,0,1-15.86-.37C40.92,65,35.36,58.91,32.44,49.14l17-2.38c4.33,8.67,7.55,11,12.55,9.17,4.41-1.6,6.77-7,5.45-12.57-1.25-5.27-5.16-7-14-5.75l.69-11.67c7.87-1.56,10.56-3.68,10.49-8.18-.06-3.66-1.94-6-5.6-6.51-4.37-.66-6.83,1.52-9.32,8.41l-15.84-2.8C35,9.05,40.61,3.21,48.79,1.18L53.59,0Z"/><path class="cls-1" d="M142.68,104l-19.9,19.61v-11.2c-10.44-.88-20.36-1.37-30.19-2.6-25-3.14-49.52-8.49-72.5-19.21a66.62,66.62,0,0,1-15.36-10c-6.49-5.64-6.29-12.51.52-17.81,5-3.9,10.88-6.65,16.79-10.16l2.88,6.54c-2.21,1.77-4.41,3.26-6.27,5.09-3.73,3.66-3.93,7.6.31,10.62a55.69,55.69,0,0,0,14.45,7.61c24.46,8.16,49.86,11.4,75.43,13.5,4.29.35,8.6.53,13.61.83V83.36Z"/><path class="cls-1" d="M207.55,57.31c.68-1.67,1.22-3,1.93-4.78,8,2.9,15.14,6.56,20.36,13.14,4.53,5.7,4.6,12.85-.84,17.58a65.4,65.4,0,0,1-17.45,11.19c-18.38,7.61-37.79,11.34-57.82,13.58V97.09c8.37-1.39,16.85-2.17,25-4.3,10.24-2.68,20.64-5.51,30.15-10,14-6.62,14-16,.9-24.22C209.2,58.21,208.61,57.91,207.55,57.31Z"/><path class="cls-1" d="M226.78,15c0,11.19-3.89,15.22-12.71,14a9.73,9.73,0,0,1-1.95-.36c-5.53-2-8.17-12.28-5.27-20.41,1.78-5,8.28-7.47,13.94-5.08S226.65,10.74,226.78,15Zm-14.18.06c.13,2.22-.2,3.9.4,5.14.75,1.58,2.25,2.8,3.43,4.18,1.09-1.46,2.91-2.83,3.11-4.4a36.48,36.48,0,0,0-.26-9.84,4.08,4.08,0,0,0-2.88-2.72c-1,0-2.6,1.4-3,2.53A20.44,20.44,0,0,0,212.6,15.1Z"/></g></g></svg>