<svg id="Layer_1" data-name="Layer 1" xmlns="http://www.w3.org/2000/svg" viewBox="0 0 216 229">
<path class="cls-1" d="M108,157.66h0a49.33,49.33,0,1,1,49.33-49.33A49.34,49.34,0,0,1,108,157.66Z"/>
<path class="cls-2" d="M137.07,105.94A28.56,28.56,0,0,0,80,105.42c0,.41,0,.83,0,1.24a28.17,28.17,0,0,0,4.09,14.64l-5.15,15.2,15.82-5a28.61,28.61,0,0,0,42.36-24.82c0-.24,0-.48,0-.72m-28.54,24.55a23.91,23.91,0,0,1-13.21-4l-9.23,2.94,3-8.85a23.54,23.54,0,0,1-4.58-14,22.2,22.2,0,0,1,.13-2.31,24,24,0,0,1,47.82.45c0,.62.08,1.23.08,1.86a24,24,0,0,1-24,23.83"/>
<path class="cls-2" d="M120.79,112.38c-.71-.34-4.14-2-4.78-2.26s-1.12-.34-1.58.35-1.82,2.26-2.22,2.72-.82.52-1.53.17a19,19,0,0,1-5.62-3.45,20.5,20.5,0,0,1-3.9-4.8c-.4-.69,0-1.07.31-1.42s.7-.81,1.06-1.21l.25-.34a7,7,0,0,0,.44-.83,1.25,1.25,0,0,0,0-1.21c-.17-.35-1.58-3.77-2.17-5.16s-1.16-1.15-1.57-1.15-.87-.07-1.34-.07a2.56,2.56,0,0,0-1.87.87,7.74,7.74,0,0,0-2.45,5.8,9.07,9.07,0,0,0,.36,2.37,15.82,15.82,0,0,0,2.5,4.81c.35.46,4.84,7.7,12,10.5s7.13,1.84,8.41,1.72,4.15-1.67,4.72-3.3a5.79,5.79,0,0,0,.42-3.3c-.17-.28-.64-.46-1.34-.81"/>
</svg>